<svg xmlns="http://www.w3.org/2000/svg" viewBox="2247.04 4179.114 176.862 48.455">
  <defs>
    <style>
      .cls-1, .cls-2 {
        fill: #fff;
      }

      .cls-2 {
        font-size: 26px;
        font-family: Helvetica;
      }
    </style>
  </defs>
  <g id="logo" transform="translate(2204 4167)">
    <g id="XMLID_22_" transform="translate(43.04 12.114)">
      <path id="XMLID_23_" class="cls-1" d="M18.478,48.436a9.26,9.26,0,0,1-1.973-.1,5.372,5.372,0,0,1-1.282-.247c-.444-.148-.888-.148-1.282-.3-.345-.1-.641-.2-.986-.3a7.75,7.75,0,0,1-1.134-.444,11.808,11.808,0,0,1-1.381-.641c-.247-.1-.444-.247-.691-.345a4.023,4.023,0,0,1-.839-.543,11.8,11.8,0,0,1-1.036-.641c-.345-.247-.641-.543-.986-.74-.395-.3-.691-.641-1.085-.986a7.587,7.587,0,0,1-.641-.592,4.98,4.98,0,0,1-.641-.789c-.1-.148-.247-.247-.345-.395l-.444-.592c-.148-.2-.3-.444-.444-.641a5.872,5.872,0,0,1-.444-.74c-.3-.493-.543-.986-.839-1.48a3.017,3.017,0,0,1-.247-.592l-.3-.74a3.19,3.19,0,0,1-.2-.641c-.148-.543-.345-1.085-.493-1.677a12.893,12.893,0,0,1-.3-1.332,12.72,12.72,0,0,1-.2-1.924c0-.592-.049-1.184,0-1.726,0-.543.049-1.085.1-1.628l.148-1.184a9.986,9.986,0,0,1,.444-1.628c.049-.247.148-.444.2-.691a5.971,5.971,0,0,1,.444-1.529c.2-.444.395-.839.641-1.282.148-.247.3-.543.444-.789.3-.444.543-.888.839-1.332.247-.345.493-.641.74-.986l.3-.3a14.581,14.581,0,0,1,1.184-1.282c.641-.543,1.233-1.134,1.924-1.628.74-.493,1.43-1.036,2.121-1.578.3-.247.592-.543.888-.789.148-.148.345-.3.493-.444.3-.345.592-.641.888-.986A14.66,14.66,0,0,0,13.4,9.519a14.53,14.53,0,0,0,1.036-1.726c.2-.395.395-.789.641-1.233a5.117,5.117,0,0,0,.2-.493l.3-.74c.247-.641.395-1.332.641-1.973.049-.2.049-.395.1-.592.1-.444.148-.888.2-1.282.1-.444.049-.937.148-1.381,0-.049,0-.1.049-.1a.106.106,0,0,1,.1.1L17.985,1.43c.3.345.592.641.839.937.2.247.395.444.592.691.148.148.247.3.395.444.3.345.543.641.839.937.247.247.493.543.74.839.3.3.543.641.839.937.2.2.395.444.592.641a8.574,8.574,0,0,1,.641.74l1.332,1.48c.395.395.74.839,1.134,1.282l1.332,1.48c.345.395.74.839,1.085,1.233.3.345.641.691.937,1.036.3.395.641.74.937,1.085.444.493.839.986,1.282,1.48.345.345.691.74.986,1.085s.543.74.838,1.085a5.121,5.121,0,0,1,.592.839,13.923,13.923,0,0,1,.888,1.43,9.691,9.691,0,0,0,.641,1.233,3.4,3.4,0,0,1,.148.395c.247.691.543,1.381.74,2.121.2.592.3,1.233.444,1.874.148.543.1,1.085.2,1.578a7.412,7.412,0,0,1,.1.986v1.184a13.029,13.029,0,0,1-.1,1.43,1.678,1.678,0,0,0-.049.493,4.959,4.959,0,0,1-.2,1.233c-.1.345-.1.691-.2,1.036s-.2.641-.3.986a9.882,9.882,0,0,1-.493,1.282,8.224,8.224,0,0,0-.395.986,2.644,2.644,0,0,1-.247.543,5.391,5.391,0,0,0-.395.74,8.111,8.111,0,0,1-.691,1.085,2.19,2.19,0,0,1-.395.543,3.167,3.167,0,0,1-.493.641,8.587,8.587,0,0,0-.592.691A16.35,16.35,0,0,1,31.253,43.5c-.3.3-.592.543-.888.789-.247.2-.543.444-.789.641-.3.2-.592.444-.937.641a3.462,3.462,0,0,0-.444.3c-.2.148-.444.247-.691.395a12.021,12.021,0,0,1-1.381.691c-.395.148-.789.345-1.233.493-.493.148-.986.345-1.48.444-.345.1-.691.1-.986.2a7.242,7.242,0,0,1-1.43.247C20.155,48.387,19.366,48.436,18.478,48.436Zm1.085-36.894c-.1.1-.148.2-.2.247-.3.247-.493.592-.74.839-.345.345-.641.789-.986,1.134-.3.345-.592.691-.937,1.036-.395.395-.74.839-1.085,1.233-.3.3-.543.641-.839.986-.247.3-.493.543-.74.839s-.493.592-.789.888c-.247.3-.493.543-.74.839-.395.493-.789.937-1.184,1.381-.3.345-.592.641-.888.986a7.058,7.058,0,0,0-.543.74c-.148.2-.3.345-.444.543a12.854,12.854,0,0,0-.839,1.381c-.2.444-.444.937-.641,1.43-.2.592-.345,1.184-.493,1.776a12.737,12.737,0,0,0-.148,1.43,5.7,5.7,0,0,0,.049,1.578c.1.543.148,1.085.247,1.628,0,.1.049.2.049.3a11.676,11.676,0,0,0,.641,1.677c.2.444.395.839.641,1.282A6.8,6.8,0,0,0,9.8,36.944a4.972,4.972,0,0,0,.839.937c.395.345.74.691,1.134.986.395.247.74.543,1.184.789a10.5,10.5,0,0,0,2.022.888c.3.1.592.2.937.3A4.308,4.308,0,0,0,17,41.087a15.947,15.947,0,0,0,2.17.049c.543-.049,1.085-.1,1.628-.2a11.1,11.1,0,0,0,1.726-.444c.345-.1.691-.3,1.036-.395a.991.991,0,0,0,.395-.2,3.145,3.145,0,0,1,.691-.395,4.689,4.689,0,0,0,1.381-.986c.395-.345.789-.74,1.134-1.085a8.19,8.19,0,0,0,.789-1.036,7.85,7.85,0,0,0,.641-1.085,8.049,8.049,0,0,0,.444-.937,3.739,3.739,0,0,0,.3-.789,3.866,3.866,0,0,1,.247-.691,8.123,8.123,0,0,0,.3-1.578,3.656,3.656,0,0,0,.049-1.036c0-.592,0-1.134-.049-1.726V28.41c-.049-.493-.247-.986-.345-1.48-.049-.148-.049-.3-.1-.444a1.752,1.752,0,0,1-.2-.444,4.524,4.524,0,0,0-.444-1.134c-.247-.493-.543-.986-.839-1.48a9.452,9.452,0,0,0-.888-1.085,8.863,8.863,0,0,0-.986-.937c-.247-.247-.444-.493-.691-.74a10.344,10.344,0,0,1-1.085-1.48,3.735,3.735,0,0,1-.444-.888c-.1-.395-.3-.789-.395-1.184a4.478,4.478,0,0,1-.148-1.134c0-.2-.1-.395-.1-.641l-.247.247c-.3.2-.543.493-.839.74a5.912,5.912,0,0,0-.592.543c-.148.148-.2.148-.3-.049a2,2,0,0,0-.247-.444A9.956,9.956,0,0,1,20.3,14.9c-.1-.2-.1-.395-.2-.592a7.79,7.79,0,0,1-.444-2.072C19.612,11.986,19.612,11.788,19.563,11.542Z" transform="translate(-0.256 0)"/>
    </g>
    <text id="TORBRAM" class="cls-2" transform="translate(89.902 48.304)"><tspan x="0" y="0">TORBRAM</tspan></text>
  </g>
</svg>
