<svg id="Layer_2" data-name="Layer 2" xmlns="http://www.w3.org/2000/svg" viewBox="0 0 249.81 79.04"><defs><style>.cls-1,.cls-5{fill:#fff;}.cls-2{fill:#f4ffff;}.cls-3{fill:#e5e55c;}.cls-4{fill:#d3ffff;}.cls-5{font-size:50.33px;font-family:Expressa-Bold, Expressa-Bold;letter-spacing:0.01em;}.cls-6{letter-spacing:0.03em;}</style></defs><title>logo-footer</title><path class="cls-1" d="M42,55.18s-33.94,18.5-30.81-20C11.2,35.14,15.64,59.55,42,55.18Z"/><path class="cls-1" d="M18.29,16.08S4.37,41.47,45.84,53.17c0,0,4.71-3.33,5.51-8.46s1.09-13.36-10.88-23.42S24.58,7.88,24.6,2c0,0-5.54,8.7-.05,14.9C41.46,35.94,49,40.59,47.19,41.87,43.57,44.39,17.72,29.44,18.29,16.08Z"/><path class="cls-2" d="M43.84,63.66a40,40,0,0,1-10,3.76c-8.85,1.92-20,.17-18-22.26C15.9,45.16,18,68,43.84,63.66Z"/><path class="cls-2" d="M46.19,62.12S41,57.24,34.7,55.44,14.08,43.11,22.17,28.21c0,0,.26,13.1,11.49,18A21.32,21.32,0,0,1,46.19,62.12Z"/><path class="cls-2" d="M49.84,55.18s1.57-15.67-8.61-21.58S25.82,17.16,25.82,15.36s-4.17,13.1,3.4,17.73S48.8,45.93,49.84,55.18Z"/><path class="cls-3" d="M43.58,62.12S27.13,66.23,24,49.79C24,49.79,18.78,73.43,43.58,62.12Z"/><path class="cls-3" d="M45.93,61.61S48,57.75,40.18,50.82s-11-5.66-11.48-15.16c0,0-5.49,8.22,0,14.9S41.23,55.18,45.93,61.61Z"/><path class="cls-3" d="M49.58,54.16s.79-8.23-3.39-11.31-13.58-9-14.1-15.93c0,0-5.22,8,3.13,15.16S46.19,47,49.58,54.16Z"/><path class="cls-4" d="M43.58,63.66s-12.8.26-14.1-9.5C29.48,54.16,26.09,70.34,43.58,63.66Z"/><path class="cls-4" d="M45.41,62.12s1.82-4.11-5-8-7.83-9.51-7.83-10-5.48,9,4.44,13.87Z"/><path class="cls-4" d="M47,59s0-4.88-2.61-6.43S32.09,45.68,35,37.71c0,0,3.14,6.94,9.66,10.54S47,59,47,59Z"/><text class="cls-5" transform="translate(60.25 59.29)">T<tspan class="cls-6" x="23.66" y="0">orbram</tspan></text></svg>